<svg width="200" height="50" viewBox="0 0 200 50" fill="none" xmlns="http://www.w3.org/2000/svg">
  <rect width="200" height="50" rx="8" fill="none" />
  <path d="M20 15H25V35H20V15Z" fill="currentColor" />
  <path d="M30 15H35V25H45V15H50V35H45V30H35V35H30V15Z" fill="currentColor" />
  <path d="M55 15H70V20H60V22.5H68V27.5H60V30H70V35H55V15Z" fill="currentColor" />
  <path d="M75 15H80V35H75V15Z" fill="currentColor" />
  <path d="M85 15H90V30H100V35H85V15Z" fill="currentColor" />
  <path d="M105 15H120V20H110V22.5H118V27.5H110V35H105V15Z" fill="currentColor" />
  <path d="M125 15H140V20H130V22.5H138V27.5H130V30H140V35H125V15Z" fill="currentColor" />
  <path d="M145 15H150V30H160V35H145V15Z" fill="currentColor" />
  <path d="M165 15H180V20H170V22.5H178V27.5H170V30H180V35H165V15Z" fill="currentColor" />
  <path d="M185 15H190V35H185V15Z" fill="currentColor" />
</svg>